HIERARCHY
ROOT Hips
{
	OFFSET -339.306915 540.749023 89.171944
	CHANNELS 6 Xposition Yposition Zposition Zrotation Yrotation Xrotation
	JOINT Spine
	{
		OFFSET 0.000000 2.080078 8.814247
		CHANNELS 6 Xposition Yposition Zposition Zrotation Yrotation Xrotation
		JOINT Spine1
		{
			OFFSET 0.000000 0.000000 8.844139
			CHANNELS 6 Xposition Yposition Zposition Zrotation Yrotation Xrotation
			JOINT Spine2
			{
				OFFSET 0.000000 0.000000 11.682266
				CHANNELS 6 Xposition Yposition Zposition Zrotation Yrotation Xrotation
				JOINT Spine3
				{
					OFFSET 0.000000 0.000000 11.746696
					CHANNELS 6 Xposition Yposition Zposition Zrotation Yrotation Xrotation
					JOINT Neck
					{
						OFFSET 0.000000 0.000000 17.658264
						CHANNELS 6 Xposition Yposition Zposition Zrotation Yrotation Xrotation
						JOINT Neck1
						{
							OFFSET 0.000000 0.000000 5.101517
							CHANNELS 6 Xposition Yposition Zposition Zrotation Yrotation Xrotation
							JOINT Head
							{
								OFFSET 0.000000 0.000000 5.101517
								CHANNELS 6 Xposition Yposition Zposition Zrotation Yrotation Xrotation
								JOINT HeadEnd
								{
									OFFSET 0.000000 0.000000 11.655090
									CHANNELS 6 Xposition Yposition Zposition Zrotation Yrotation Xrotation
									End Site
									{
										OFFSET 0.000000 0.000000 0.100006
									}
								}
							}
						}
					}
					JOINT RightShoulder
					{
						OFFSET -2.625397 0.000000 11.175217
						CHANNELS 6 Xposition Yposition Zposition Zrotation Yrotation Xrotation
						JOINT RightArm
						{
							OFFSET 0.000000 0.000000 10.434708
							CHANNELS 6 Xposition Yposition Zposition Zrotation Yrotation Xrotation
							JOINT RightForeArm
							{
								OFFSET 0.000000 0.000000 29.628418
								CHANNELS 6 Xposition Yposition Zposition Zrotation Yrotation Xrotation
								JOINT RightHand
								{
									OFFSET 0.000000 0.000000 22.857605
									CHANNELS 6 Xposition Yposition Zposition Zrotation Yrotation Xrotation
									JOINT RightHandThumb1
									{
										OFFSET -2.867310 -2.944275 3.959564
										CHANNELS 6 Xposition Yposition Zposition Zrotation Yrotation Xrotation
										JOINT RightHandThumb2
										{
											OFFSET 0.000000 0.000000 3.350403
											CHANNELS 6 Xposition Yposition Zposition Zrotation Yrotation Xrotation
											JOINT RightHandThumb3
											{
												OFFSET 0.000000 0.000000 3.756516
												CHANNELS 6 Xposition Yposition Zposition Zrotation Yrotation Xrotation
												JOINT RightHandThumb4
												{
													OFFSET 0.000000 0.000000 3.147339
													CHANNELS 6 Xposition Yposition Zposition Zrotation Yrotation Xrotation
													End Site
													{
														OFFSET 0.000000 0.000000 0.100006
													}
												}
											}
										}
									}
									JOINT RightHandIndex1
									{
										OFFSET -0.086761 -2.345276 10.030899
										CHANNELS 6 Xposition Yposition Zposition Zrotation Yrotation Xrotation
										JOINT RightHandIndex2
										{
											OFFSET 0.000000 0.000000 4.061096
											CHANNELS 6 Xposition Yposition Zposition Zrotation Yrotation Xrotation
											JOINT RightHandIndex3
											{
												OFFSET 0.000000 0.000000 3.248871
												CHANNELS 6 Xposition Yposition Zposition Zrotation Yrotation Xrotation
												JOINT RightHandIndex4
												{
													OFFSET 0.000000 0.000000 2.639709
													CHANNELS 6 Xposition Yposition Zposition Zrotation Yrotation Xrotation
													End Site
													{
														OFFSET 0.000000 0.000000 0.100006
													}
												}
											}
										}
									}
									JOINT RightHandMiddle1
									{
										OFFSET 0.104095 -0.006775 9.502945
										CHANNELS 6 Xposition Yposition Zposition Zrotation Yrotation Xrotation
										JOINT RightHandMiddle2
										{
											OFFSET 0.000000 0.000000 4.568726
											CHANNELS 6 Xposition Yposition Zposition Zrotation Yrotation Xrotation
											JOINT RightHandMiddle3
											{
												OFFSET 0.000000 0.000000 3.654984
												CHANNELS 6 Xposition Yposition Zposition Zrotation Yrotation Xrotation
												JOINT RightHandMiddle4
												{
													OFFSET 0.000000 0.000000 2.741241
													CHANNELS 6 Xposition Yposition Zposition Zrotation Yrotation Xrotation
													End Site
													{
														OFFSET 0.000000 0.000000 0.100006
													}
												}
											}
										}
									}
									JOINT RightHandRing1
									{
										OFFSET 0.086761 2.267456 8.921707
										CHANNELS 6 Xposition Yposition Zposition Zrotation Yrotation Xrotation
										JOINT RightHandRing2
										{
											OFFSET 0.000000 0.000000 4.061096
											CHANNELS 6 Xposition Yposition Zposition Zrotation Yrotation Xrotation
											JOINT RightHandRing3
											{
												OFFSET 0.000000 0.000000 3.654984
												CHANNELS 6 Xposition Yposition Zposition Zrotation Yrotation Xrotation
												JOINT RightHandRing4
												{
													OFFSET 0.000000 0.000000 2.741241
													CHANNELS 6 Xposition Yposition Zposition Zrotation Yrotation Xrotation
													End Site
													{
														OFFSET 0.000000 0.000000 0.100006
													}
												}
											}
										}
									}
									JOINT RightHandPinky1
									{
										OFFSET -0.173492 4.467224 7.976990
										CHANNELS 6 Xposition Yposition Zposition Zrotation Yrotation Xrotation
										JOINT RightHandPinky2
										{
											OFFSET 0.000000 0.000000 3.350403
											CHANNELS 6 Xposition Yposition Zposition Zrotation Yrotation Xrotation
											JOINT RightHandPinky3
											{
												OFFSET 0.000000 0.000000 2.842758
												CHANNELS 6 Xposition Yposition Zposition Zrotation Yrotation Xrotation
												JOINT RightHandPinky4
												{
													OFFSET 0.000000 0.000000 2.639709
													CHANNELS 6 Xposition Yposition Zposition Zrotation Yrotation Xrotation
													End Site
													{
														OFFSET 0.000000 0.000000 0.100006
													}
												}
											}
										}
									}
									JOINT RightForeArmEnd
									{
										OFFSET 0.000000 0.000000 0.000000
										CHANNELS 6 Xposition Yposition Zposition Zrotation Yrotation Xrotation
										End Site
										{
											OFFSET 0.000000 0.000000 0.100006
										}
									}
								}
								JOINT RightArmEnd
								{
									OFFSET 0.000000 0.000000 0.000000
									CHANNELS 6 Xposition Yposition Zposition Zrotation Yrotation Xrotation
									End Site
									{
										OFFSET 0.000000 0.000000 0.100006
									}
								}
							}
						}
					}
					JOINT LeftShoulder
					{
						OFFSET 2.625397 0.000000 11.175217
						CHANNELS 6 Xposition Yposition Zposition Zrotation Yrotation Xrotation
						JOINT LeftArm
						{
							OFFSET 0.000000 0.000000 10.813629
							CHANNELS 6 Xposition Yposition Zposition Zrotation Yrotation Xrotation
							JOINT LeftForeArm
							{
								OFFSET 0.000000 0.000000 28.724777
								CHANNELS 6 Xposition Yposition Zposition Zrotation Yrotation Xrotation
								JOINT LeftHand
								{
									OFFSET 0.644379 0.328857 25.716171
									CHANNELS 6 Xposition Yposition Zposition Zrotation Yrotation Xrotation
									JOINT LeftHandThumb1
									{
										OFFSET 2.867310 -2.944275 3.959564
										CHANNELS 6 Xposition Yposition Zposition Zrotation Yrotation Xrotation
										JOINT LeftHandThumb2
										{
											OFFSET 0.000000 0.000000 3.350403
											CHANNELS 6 Xposition Yposition Zposition Zrotation Yrotation Xrotation
											JOINT LeftHandThumb3
											{
												OFFSET 0.000000 0.000000 3.756516
												CHANNELS 6 Xposition Yposition Zposition Zrotation Yrotation Xrotation
												JOINT LeftHandThumb4
												{
													OFFSET 0.000000 0.000000 3.100006
													CHANNELS 6 Xposition Yposition Zposition Zrotation Yrotation Xrotation
													End Site
													{
														OFFSET 0.000000 0.000000 0.100006
													}
												}
											}
										}
									}
									JOINT LeftHandIndex1
									{
										OFFSET 0.086761 -2.345276 10.030899
										CHANNELS 6 Xposition Yposition Zposition Zrotation Yrotation Xrotation
										JOINT LeftHandIndex2
										{
											OFFSET 0.000000 0.000000 4.061096
											CHANNELS 6 Xposition Yposition Zposition Zrotation Yrotation Xrotation
											JOINT LeftHandIndex3
											{
												OFFSET 0.000000 0.000000 3.248871
												CHANNELS 6 Xposition Yposition Zposition Zrotation Yrotation Xrotation
												JOINT LeftHandIndex4
												{
													OFFSET 0.000000 0.000000 2.639709
													CHANNELS 6 Xposition Yposition Zposition Zrotation Yrotation Xrotation
													End Site
													{
														OFFSET 0.000000 0.000000 0.100006
													}
												}
											}
										}
									}
									JOINT LeftHandMiddle1
									{
										OFFSET -0.104095 -0.006775 9.502945
										CHANNELS 6 Xposition Yposition Zposition Zrotation Yrotation Xrotation
										JOINT LeftHandMiddle2
										{
											OFFSET 0.000000 0.000000 4.568726
											CHANNELS 6 Xposition Yposition Zposition Zrotation Yrotation Xrotation
											JOINT LeftHandMiddle3
											{
												OFFSET 0.000000 0.000000 3.654984
												CHANNELS 6 Xposition Yposition Zposition Zrotation Yrotation Xrotation
												JOINT LeftHandMiddle4
												{
													OFFSET 0.000000 0.000000 2.741241
													CHANNELS 6 Xposition Yposition Zposition Zrotation Yrotation Xrotation
													End Site
													{
														OFFSET 0.000000 0.000000 0.100006
													}
												}
											}
										}
									}
									JOINT LeftHandRing1
									{
										OFFSET -0.086761 2.267456 8.921707
										CHANNELS 6 Xposition Yposition Zposition Zrotation Yrotation Xrotation
										JOINT LeftHandRing2
										{
											OFFSET 0.000000 0.000000 4.061096
											CHANNELS 6 Xposition Yposition Zposition Zrotation Yrotation Xrotation
											JOINT LeftHandRing3
											{
												OFFSET 0.000000 0.000000 3.654984
												CHANNELS 6 Xposition Yposition Zposition Zrotation Yrotation Xrotation
												JOINT LeftHandRing4
												{
													OFFSET 0.000000 0.000000 2.741241
													CHANNELS 6 Xposition Yposition Zposition Zrotation Yrotation Xrotation
													End Site
													{
														OFFSET 0.000000 0.000000 0.100006
													}
												}
											}
										}
									}
									JOINT LeftHandPinky1
									{
										OFFSET 0.173492 4.467224 7.976990
										CHANNELS 6 Xposition Yposition Zposition Zrotation Yrotation Xrotation
										JOINT LeftHandPinky2
										{
											OFFSET 0.000000 0.000000 3.350403
											CHANNELS 6 Xposition Yposition Zposition Zrotation Yrotation Xrotation
											JOINT LeftHandPinky3
											{
												OFFSET 0.000000 0.000000 2.842758
												CHANNELS 6 Xposition Yposition Zposition Zrotation Yrotation Xrotation
												JOINT LeftHandPinky4
												{
													OFFSET 0.000000 0.000000 2.639709
													CHANNELS 6 Xposition Yposition Zposition Zrotation Yrotation Xrotation
													End Site
													{
														OFFSET 0.000000 0.000000 0.100006
													}
												}
											}
										}
									}
									JOINT LeftForeArmEnd
									{
										OFFSET 0.000000 0.000000 0.000000
										CHANNELS 6 Xposition Yposition Zposition Zrotation Yrotation Xrotation
										End Site
										{
											OFFSET 0.000000 0.000000 0.100006
										}
									}
								}
								JOINT LeftArmEnd
								{
									OFFSET 0.000000 0.000000 0.000000
									CHANNELS 6 Xposition Yposition Zposition Zrotation Yrotation Xrotation
									End Site
									{
										OFFSET 0.000000 0.000000 0.100006
									}
								}
							}
						}
					}
				}
			}
		}
	}
	JOINT RightUpLeg
	{
		OFFSET -11.289948 0.000000 0.000000
		CHANNELS 6 Xposition Yposition Zposition Zrotation Yrotation Xrotation
		JOINT RightLeg
		{
			OFFSET 0.000000 0.000000 -38.200329
			CHANNELS 6 Xposition Yposition Zposition Zrotation Yrotation Xrotation
			JOINT RightFoot
			{
				OFFSET 0.000000 0.000000 -39.900856
				CHANNELS 6 Xposition Yposition Zposition Zrotation Yrotation Xrotation
				JOINT RightToeBase
				{
					OFFSET 0.000000 -15.261658 0.000001
					CHANNELS 6 Xposition Yposition Zposition Zrotation Yrotation Xrotation
					JOINT RightToeBaseEnd
					{
						OFFSET 0.000000 -7.370728 0.000001
						CHANNELS 6 Xposition Yposition Zposition Zrotation Yrotation Xrotation
						End Site
						{
							OFFSET 0.000000 0.000000 0.100000
						}
					}
				}
				JOINT RightLegEnd
				{
					OFFSET 0.000000 0.000000 0.000000
					CHANNELS 6 Xposition Yposition Zposition Zrotation Yrotation Xrotation
					End Site
					{
						OFFSET 0.000000 0.000000 0.100000
					}
				}
			}
			JOINT RightUpLegEnd
			{
				OFFSET 0.000000 0.000000 0.000000
				CHANNELS 6 Xposition Yposition Zposition Zrotation Yrotation Xrotation
				End Site
				{
					OFFSET 0.000000 0.000000 0.099998
				}
			}
		}
	}
	JOINT LeftUpLeg
	{
		OFFSET 11.315674 0.000000 0.000000
		CHANNELS 6 Xposition Yposition Zposition Zrotation Yrotation Xrotation
		JOINT LeftLeg
		{
			OFFSET 0.000000 0.000000 -38.200329
			CHANNELS 6 Xposition Yposition Zposition Zrotation Yrotation Xrotation
			JOINT LeftFoot
			{
				OFFSET 0.000000 0.000000 -39.900856
				CHANNELS 6 Xposition Yposition Zposition Zrotation Yrotation Xrotation
				JOINT LeftToeBase
				{
					OFFSET 0.000000 -15.261658 0.000001
					CHANNELS 6 Xposition Yposition Zposition Zrotation Yrotation Xrotation
					JOINT LeftToeBaseEnd
					{
						OFFSET 0.000000 -7.539978 0.000001
						CHANNELS 6 Xposition Yposition Zposition Zrotation Yrotation Xrotation
						End Site
						{
							OFFSET 0.000000 0.000000 0.100000
						}
					}
				}
				JOINT LeftLegEnd
				{
					OFFSET 0.000000 0.000000 0.000000
					CHANNELS 6 Xposition Yposition Zposition Zrotation Yrotation Xrotation
					End Site
					{
						OFFSET 0.000000 0.000000 0.100000
					}
				}
			}
			JOINT LeftUpLegEnd
			{
				OFFSET 0.000000 0.000000 0.000000
				CHANNELS 6 Xposition Yposition Zposition Zrotation Yrotation Xrotation
				End Site
				{
					OFFSET 0.000000 0.000000 0.099998
				}
			}
		}
	}
}
MOTION
Frames: 2
Frame Time: 0.016667
12.998016 -60.831055 86.982727 -5.090147 -1.223156 -5.468234 0.000007 2.080079 8.814254 -0.058567 1.660376 3.873690 0.000015 -0.000019 8.844162 0.088198 -0.017015 2.196776 0.000005 -0.000011 11.682262 1.068448 -0.425292 4.588348 -0.000001 -0.000015 11.746707 0.250917 -1.086264 8.210103 0.000012 -0.000012 17.658283 -1.458956 2.043063 15.680721 0.000009 -0.000022 5.101488 -2.691512 0.615638 1.185452 0.000009 0.000038 5.101527 0.941431 -0.619285 -20.871586 0.000002 -0.000003 11.655064 0.000000 0.000000 0.000000 -2.625397 0.000010 11.175230 11.135624 -61.918670 0.207745 -0.000015 -0.000026 10.434708 -51.260163 -59.761621 48.472579 0.000008 -0.000015 29.628424 21.651662 1.303263 136.820423 -0.000002 -0.000042 22.857628 -2.853553 48.571196 -1.004404 -2.867351 -2.944260 3.959564 32.995332 -27.956830 36.610934 0.000008 0.000031 3.350384 -36.139023 9.737568 -60.735299 0.000015 -0.000015 3.756523 -24.193222 11.009514 -41.576007 0.000000 -0.000009 3.147345 0.000001 -0.000001 -0.000001 -0.086771 -2.345275 10.030890 -149.844952 -86.311045 132.304384 -0.000015 0.000008 4.061111 11.277049 -65.712546 -18.146337 0.000000 0.000010 3.248856 11.777070 -65.712546 -18.146334 -0.000007 -0.000022 2.639688 0.000002 0.000001 0.000002 0.104073 -0.006802 9.502930 -132.356130 -81.181320 120.861113 -0.000006 -0.000003 4.568726 4.335975 -67.426378 -7.242267 -0.000019 -0.000021 3.654959 4.835968 -67.426343 -7.244134 0.000008 -0.000005 2.741230 0.000001 -0.000002 -0.000000 0.086775 2.267458 8.921700 -151.697340 -60.541048 151.790928 0.000015 -0.000006 4.061119 -17.052885 -80.437663 21.280083 0.000011 0.000017 3.654972 -18.054592 -80.437601 21.280534 -0.000010 -0.000005 2.741249 0.000001 0.000001 -0.000000 -0.173492 4.467231 7.976990 -149.030616 -46.553039 158.833645 0.000013 -0.000008 3.350424 -79.232865 -78.991541 92.267864 -0.000019 -0.000015 2.842730 -81.233079 -78.991513 92.272243 -0.000010 0.000010 2.639690 -0.000001 -0.000001 0.000002 -0.000004 -0.000007 0.000002 0.000000 -0.000001 0.000002 0.000012 -0.000000 0.000019 0.000000 0.000001 -0.000002 2.625420 0.000011 11.175206 -14.731733 61.362208 -0.201899 0.000015 -0.000001 10.813629 56.446807 52.091582 45.595816 0.000008 0.000038 28.724756 -19.739325 0.617481 129.347145 0.644379 0.328841 25.716164 -2.695163 -60.522778 23.821232 2.867323 -2.944275 3.959610 -32.995350 27.956806 36.610955 -0.000008 -0.000015 3.350399 36.138992 -9.737548 -60.735285 -0.000023 -0.000008 3.756516 24.193194 -11.009509 -41.576010 -0.000015 0.000002 3.100011 0.000001 0.000001 -0.000002 0.086712 -2.345272 10.030914 121.318776 68.434869 122.974660 0.000008 -0.000008 4.061104 14.831356 69.426742 21.989297 0.000015 0.000013 3.248833 15.331297 69.426749 21.989268 -0.000004 0.000004 2.639753 -0.000000 -0.000000 -0.000002 -0.104073 -0.006765 9.502964 135.067278 71.141570 142.037295 0.000023 -0.000013 4.568714 6.443767 72.357446 9.496160 0.000017 0.000010 3.654961 6.943826 72.357474 9.493032 0.000008 0.000009 2.741248 -0.000001 -0.000001 -0.000000 -0.086761 2.267450 8.921732 171.395865 59.372355 186.183348 0.000004 -0.000008 4.061087 -22.926478 82.383686 -27.221565 -0.000006 0.000025 3.654951 -23.926445 82.383665 -27.223449 -0.000001 0.000003 2.741278 -0.000000 -0.000002 -0.000000 0.173454 4.467230 7.977013 6.259694 130.435754 25.000552 0.000008 -0.000069 3.350410 -65.540392 78.773378 -78.325372 0.000002 0.000011 2.842744 -67.540565 78.773398 -78.326123 0.000013 0.000010 2.639718 -0.000001 -0.000003 0.000001 0.000019 0.000005 0.000014 0.000000 -0.000003 0.000001 -0.000036 -0.000018 0.000022 0.000002 -0.000002 -0.000003 -11.289952 0.000053 0.000014 8.999893 -1.585748 -6.496639 0.000004 -0.000001 -38.200321 0.213778 -0.133116 31.910558 -0.000009 0.000025 -39.900848 -6.797439 5.480087 9.760649 0.000002 -15.261637 0.000007 -0.339137 0.538511 -21.071598 -0.000000 -7.370666 0.000001 -0.000000 0.000001 -0.000000 0.000001 0.000061 0.000002 0.000000 -0.000000 -0.000003 0.000003 -0.000004 -0.000006 0.000000 -0.000000 0.000002 11.315651 0.000016 0.000010 -1.403734 4.053586 -3.485390 -0.000021 0.000052 -38.200291 0.067898 -0.033364 26.169025 0.000002 -0.000006 -39.900860 8.221398 -2.124460 10.776008 -0.000007 -15.261627 0.000000 -0.462159 -0.466538 -19.356468 0.000000 -7.539917 0.000001 0.000000 -0.000000 0.000000 0.000000 0.000000 0.000000 -0.000000 0.000000 0.000001 -0.000024 -0.000004 -0.000005 0.000001 -0.000000 -0.000001 
13.045593 -60.797913 86.632950 -5.261066 -1.293404 -5.853705 -0.000013 2.080091 8.814236 -0.093263 1.662853 4.048049 0.000006 -0.000027 8.844154 0.092859 -0.014711 2.267076 -0.000044 0.000010 11.682272 1.172530 -0.376448 4.368137 -0.000034 -0.000019 11.746683 0.284393 -1.063270 8.023906 -0.000015 0.000000 17.658281 -0.892671 2.324067 16.481827 -0.000009 -0.000022 5.101544 -2.197942 0.473655 1.585378 0.000002 -0.000019 5.101552 0.922170 -0.462136 -21.208478 -0.000009 -0.000000 11.655093 0.000000 0.000000 0.000000 -2.625404 -0.000008 11.175249 11.176879 -61.055211 0.231372 -0.000015 0.000016 10.434708 -56.076758 -57.443537 52.286993 0.000008 -0.000046 29.628407 20.835823 1.313853 138.103037 -0.000004 -0.000020 22.857574 -6.184674 48.162287 -1.978685 -2.867337 -2.944260 3.959564 32.995346 -27.956798 36.610951 0.000008 0.000046 3.350403 -36.138971 9.737527 -60.735299 0.000000 -0.000008 3.756531 -24.193193 11.009531 -41.576007 0.000011 0.000010 3.147338 -0.000001 -0.000002 -0.000000 -0.086719 -2.345266 10.030928 -145.283260 -86.816089 128.904699 -0.000008 0.000023 4.061096 10.901549 -65.231045 -17.733574 -0.000015 0.000008 3.248909 11.401579 -65.231059 -17.733599 0.000011 -0.000020 2.639713 0.000002 -0.000001 -0.000001 0.104118 -0.006760 9.502954 -130.682665 -81.393315 120.430715 -0.000051 -0.000028 4.568716 4.244596 -67.146818 -7.140351 -0.000004 0.000009 3.655027 4.744607 -67.146845 -7.149690 -0.000016 -0.000005 2.741237 0.000000 0.000001 -0.000001 0.086781 2.267436 8.921715 -151.515985 -60.704112 152.860836 0.000004 0.000031 4.061123 -16.925397 -80.379394 21.152059 0.000008 0.000014 3.655003 -17.925456 -80.379408 21.150980 -0.000017 0.000011 2.741251 -0.000002 0.000000 -0.000001 -0.173492 4.467228 7.976990 -148.631091 -47.101668 159.514833 -0.000025 0.000023 3.350412 -77.864102 -78.998733 90.874957 -0.000015 0.000019 2.842758 -79.864077 -78.998726 90.879458 0.000013 -0.000005 2.639690 0.000001 -0.000001 0.000002 -0.000008 -0.000004 -0.000005 0.000000 -0.000002 -0.000003 0.000025 -0.000016 0.000007 0.000002 0.000000 -0.000001 2.625412 0.000010 11.175236 -14.585012 60.252439 -0.153894 0.000008 0.000008 10.813629 60.783964 48.499548 48.886977 0.000015 0.000000 28.724766 -19.749630 0.734917 130.335541 0.644379 0.328831 25.716209 -2.409325 -61.457912 23.309523 2.867304 -2.944290 3.959610 -32.995346 27.956815 36.610948 -0.000008 -0.000015 3.350376 36.138989 -9.737551 -60.735278 -0.000015 0.000023 3.756527 24.193201 -11.009516 -41.576021 0.000015 0.000009 3.100012 -0.000001 -0.000001 -0.000000 0.086746 -2.345273 10.030903 120.374626 68.648462 122.991230 0.000023 0.000004 4.061134 14.634075 69.253426 21.778463 0.000000 -0.000021 3.248871 15.134031 69.253412 21.778436 -0.000042 0.000015 2.639723 -0.000002 0.000001 -0.000002 -0.104095 -0.006784 9.502941 134.838630 71.222583 142.557946 0.000051 0.000011 4.568735 6.424577 72.312729 9.480466 0.000006 0.000027 3.655022 6.923832 72.312750 9.476387 -0.000032 -0.000001 2.741244 0.000000 -0.000002 0.000001 -0.086777 2.267454 8.921703 171.424634 59.224420 186.886680 0.000031 0.000000 4.061127 -23.152444 82.444317 -27.450068 0.000004 0.000031 3.654991 -24.154537 82.444208 -27.454195 -0.000011 0.000010 2.741252 -0.000002 -0.000002 -0.000001 0.173500 4.467230 7.976997 6.187047 130.611221 25.433878 0.000006 0.000011 3.350422 -65.789311 78.783288 -78.580452 -0.000025 -0.000008 2.842756 -67.789313 78.783281 -78.580514 -0.000004 0.000008 2.639732 -0.000002 0.000000 0.000001 0.000000 -0.000014 0.000038 -0.000001 0.000000 0.000001 -0.000007 -0.000014 0.000035 0.000000 -0.000000 0.000000 -11.289946 -0.000019 -0.000002 8.935552 -1.539606 -7.243287 0.000011 0.000027 -38.200329 0.226688 -0.153212 34.053455 0.000006 0.000087 -39.900841 -6.794136 5.424683 8.949676 0.000009 -15.261661 -0.000001 -0.372738 0.518458 -21.309205 0.000000 -7.370667 0.000002 -0.000000 0.000001 -0.000001 0.000000 0.000061 -0.000007 0.000000 -0.000001 -0.000001 0.000001 0.000001 0.000001 -0.000000 -0.000000 0.000001 11.315666 0.000056 0.000006 -1.119426 4.140685 -4.161786 -0.000017 0.000065 -38.200275 0.048200 -0.025727 28.284787 0.000014 0.000013 -39.900864 8.250399 -1.960619 9.747651 0.000009 -15.261650 0.000005 -0.466676 -0.439487 -19.430109 0.000000 -7.539978 0.000001 -0.000000 0.000000 0.000001 0.000000 -0.000061 0.000001 0.000000 -0.000000 0.000001 0.000001 -0.000001 -0.000012 -0.000000 0.000000 0.000001 
